<?xml version="1.0" encoding="UTF-8" standalone="no"?>
<svg
   xmlns:dc="http://purl.org/dc/elements/1.1/"
   xmlns:cc="http://creativecommons.org/ns#"
   xmlns:rdf="http://www.w3.org/1999/02/22-rdf-syntax-ns#"
   xmlns:svg="http://www.w3.org/2000/svg"
   xmlns="http://www.w3.org/2000/svg"
   xmlns:sodipodi="http://sodipodi.sourceforge.net/DTD/sodipodi-0.dtd"
   xmlns:inkscape="http://www.inkscape.org/namespaces/inkscape"
   width="400"
   height="400"
   viewBox="0 0 105.83333 105.83334"
   version="1.1"
   id="svg8"
   sodipodi:docname="beauty-bratz.svg"
   inkscape:version="1.0.1 (c497b03c, 2020-09-10)">
  <defs
     id="defs2">
    <style
       id="style936">
      .cls-1 {
        clip-path: url(#clip-icon-white);
      }

      .cls-2 {
        fill: #fff;
      }
    </style>
    <clipPath
       id="clip-icon-white">
      <rect
         width="326"
         height="283"
         id="rect938" />
    </clipPath>
  </defs>
  <sodipodi:namedview
     id="base"
     pagecolor="#ffffff"
     bordercolor="#666666"
     borderopacity="1.0"
     inkscape:pageopacity="0.0"
     inkscape:pageshadow="2"
     inkscape:zoom="0.95094722"
     inkscape:cx="173.49569"
     inkscape:cy="209.73773"
     inkscape:document-units="px"
     inkscape:current-layer="layer1"
     inkscape:document-rotation="0"
     showgrid="false"
     units="px"
     showguides="true"
     inkscape:guide-bbox="true"
     inkscape:window-width="1420"
     inkscape:window-height="852"
     inkscape:window-x="10"
     inkscape:window-y="0"
     inkscape:window-maximized="0"
     inkscape:snap-bbox="true"
     inkscape:snap-bbox-midpoints="true"
     inkscape:snap-page="true"
     inkscape:bbox-nodes="true">
    <sodipodi:guide
       position="52.916668,52.916668"
       orientation="-1,0"
       id="guide849"
       inkscape:label=""
       inkscape:locked="false"
       inkscape:color="rgb(0,0,255)" />
    <sodipodi:guide
       position="52.916666,52.916671"
       orientation="0,-1"
       id="guide851" />
    <sodipodi:guide
       position="5.2916668,100.54167"
       orientation="0,1"
       id="guide946"
       inkscape:label=""
       inkscape:locked="false"
       inkscape:color="rgb(0,0,255)" />
    <sodipodi:guide
       position="5.2916666,100.54167"
       orientation="1,0"
       id="guide948" />
    <sodipodi:guide
       position="100.54167,5.2916668"
       orientation="0,1"
       id="guide950"
       inkscape:label=""
       inkscape:locked="false"
       inkscape:color="rgb(0,0,255)" />
    <sodipodi:guide
       position="100.54167,5.2916671"
       orientation="1,0"
       id="guide952" />
    <sodipodi:guide
       position="52.916665,58.208334"
       orientation="0,1"
       id="guide980"
       inkscape:label=""
       inkscape:locked="false"
       inkscape:color="rgb(0,0,255)" />
    <sodipodi:guide
       position="52.916668,47.625001"
       orientation="0,1"
       id="guide982"
       inkscape:label=""
       inkscape:locked="false"
       inkscape:color="rgb(0,0,255)" />
    <sodipodi:guide
       position="47.625001,52.916674"
       orientation="-1,0"
       id="guide984"
       inkscape:label=""
       inkscape:locked="false"
       inkscape:color="rgb(0,0,255)" />
    <sodipodi:guide
       position="58.208334,52.916674"
       orientation="-1,0"
       id="guide986"
       inkscape:label=""
       inkscape:locked="false"
       inkscape:color="rgb(0,0,255)" />
  </sodipodi:namedview>
  <metadata
     id="metadata5">
    <rdf:RDF>
      <cc:Work
         rdf:about="">
        <dc:format>image/svg+xml</dc:format>
        <dc:type
           rdf:resource="http://purl.org/dc/dcmitype/StillImage" />
        <dc:title></dc:title>
      </cc:Work>
    </rdf:RDF>
  </metadata>
  <g
     inkscape:label="Layer 1"
     inkscape:groupmode="layer"
     id="layer1">
    <rect
       style="fill:#f0ad4e;fill-opacity:1;stroke-width:7.2;stroke-linecap:square;stroke-linejoin:round;paint-order:markers stroke fill"
       id="rect852"
       width="105.83334"
       height="105.83334"
       x="-8.1469744e-07"
       y="-7.8764651e-06" />
    <g
       id="g972"
       data-name="Group 2"
       transform="matrix(0.26330736,0,0,0.26330736,-0.49724138,0.66725116)"
       style="fill:#ffffff">
      <path
         id="path968"
         data-name="Path 2"
         class="cls-2"
         d="m 82.585,252.577 a 62.273,62.273 0 0 1 -19.173,3.046 q -19.641,0 -29.52,-12.066 -9.879,-12.066 -9.878,-34.557 0,-20.617 9.119,-32.1 9.119,-11.483 27.007,-11.48 a 52.343,52.343 0 0 1 22.446,5.154 z M 81.412,0.341 c 0.469,11.714 1.173,115.921 1.173,139.427 v 23.78 q -18.968,-12.3 -34.755,-12.3 -22.147,0 -34.989,14.76 -12.842,14.76 -12.841,38.54 0,28.934 16.551,45.041 16.551,16.107 45.884,16.111 19.555,0 42.173,-6.677 -0.234,-14.877 -0.234,-38.306 v -69.469 c 0,-17.259 -0.175,-135.023 0,-134.976 -0.83,-6.048 -3.013,-8.8 -4.294,-10.113 A 28.452,28.452 0 0 0 91.563,0.7 C 88.548,-0.305 81.539,-0.039 81.412,0.341 Z"
         transform="rotate(30,23.000806,383.11295)"
         style="fill:#ffffff" />
      <path
         id="path970"
         data-name="Path 3"
         class="cls-2"
         d="m 22.022,252.577 a 62.267,62.267 0 0 0 19.172,3.046 q 19.64,0 29.518,-12.066 9.878,-12.066 9.878,-34.557 0,-20.617 -9.118,-32.1 -9.118,-11.483 -27.005,-11.48 a 52.337,52.337 0 0 0 -22.444,5.154 z M 23.195,0.341 c -0.469,11.714 -1.173,115.921 -1.173,139.427 v 23.78 q 18.967,-12.3 34.753,-12.3 22.146,0 34.987,14.76 12.841,14.76 12.841,38.54 0,28.934 -16.55,45.041 Q 71.503,265.696 42.171,265.7 22.616,265.7 0,259.019 0.234,244.142 0.234,220.713 v -69.465 c 0,-17.259 0.175,-135.023 0,-134.976 0.83,-6.048 3.013,-8.8 4.294,-10.113 A 28.45,28.45 0 0 1 13.044,0.7 c 3.015,-1.005 10.024,-0.739 10.151,-0.359 z"
         transform="rotate(-30,231.42571,-178.96567)"
         style="fill:#ffffff" />
    </g>
  </g>
</svg>
