<?xml version="1.0" encoding="UTF-8" standalone="no"?>
<svg
   xmlns:dc="http://purl.org/dc/elements/1.1/"
   xmlns:cc="http://creativecommons.org/ns#"
   xmlns:rdf="http://www.w3.org/1999/02/22-rdf-syntax-ns#"
   xmlns:svg="http://www.w3.org/2000/svg"
   xmlns="http://www.w3.org/2000/svg"
   xmlns:sodipodi="http://sodipodi.sourceforge.net/DTD/sodipodi-0.dtd"
   xmlns:inkscape="http://www.inkscape.org/namespaces/inkscape"
   width="400"
   height="400"
   viewBox="0 0 105.83333 105.83334"
   version="1.1"
   id="svg8"
   sodipodi:docname="bioboost.svg"
   inkscape:version="1.0.1 (c497b03c, 2020-09-10)">
  <defs
     id="defs2" />
  <sodipodi:namedview
     id="base"
     pagecolor="#ffffff"
     bordercolor="#666666"
     borderopacity="1.0"
     inkscape:pageopacity="0.0"
     inkscape:pageshadow="2"
     inkscape:zoom="0.85274558"
     inkscape:cx="206.75449"
     inkscape:cy="288.5366"
     inkscape:document-units="px"
     inkscape:current-layer="layer1"
     inkscape:document-rotation="0"
     showgrid="false"
     units="px"
     showguides="true"
     inkscape:guide-bbox="true"
     inkscape:window-width="1420"
     inkscape:window-height="852"
     inkscape:window-x="10"
     inkscape:window-y="0"
     inkscape:window-maximized="0"
     inkscape:snap-bbox="true"
     inkscape:snap-bbox-midpoints="false"
     inkscape:snap-page="true"
     inkscape:bbox-nodes="true"
     showborder="true">
    <sodipodi:guide
       position="52.916668,52.916668"
       orientation="-1,0"
       id="guide849"
       inkscape:label=""
       inkscape:locked="false"
       inkscape:color="rgb(0,0,255)" />
    <sodipodi:guide
       position="52.916666,52.916671"
       orientation="0,-1"
       id="guide851" />
    <sodipodi:guide
       position="5.2916668,100.54167"
       orientation="0,1"
       id="guide946"
       inkscape:label=""
       inkscape:locked="false"
       inkscape:color="rgb(0,0,255)" />
    <sodipodi:guide
       position="5.2916666,100.54167"
       orientation="1,0"
       id="guide948" />
    <sodipodi:guide
       position="100.54167,5.2916668"
       orientation="0,1"
       id="guide950"
       inkscape:label=""
       inkscape:locked="false"
       inkscape:color="rgb(0,0,255)" />
    <sodipodi:guide
       position="100.54167,5.2916671"
       orientation="1,0"
       id="guide952" />
    <sodipodi:guide
       position="52.916665,58.208334"
       orientation="0,1"
       id="guide980"
       inkscape:label=""
       inkscape:locked="false"
       inkscape:color="rgb(0,0,255)" />
    <sodipodi:guide
       position="52.916668,47.625001"
       orientation="0,1"
       id="guide982"
       inkscape:label=""
       inkscape:locked="false"
       inkscape:color="rgb(0,0,255)" />
    <sodipodi:guide
       position="47.625001,52.916674"
       orientation="-1,0"
       id="guide984"
       inkscape:label=""
       inkscape:locked="false"
       inkscape:color="rgb(0,0,255)" />
    <sodipodi:guide
       position="58.208334,52.916674"
       orientation="-1,0"
       id="guide986"
       inkscape:label=""
       inkscape:locked="false"
       inkscape:color="rgb(0,0,255)" />
  </sodipodi:namedview>
  <metadata
     id="metadata5">
    <rdf:RDF>
      <cc:Work
         rdf:about="">
        <dc:format>image/svg+xml</dc:format>
        <dc:type
           rdf:resource="http://purl.org/dc/dcmitype/StillImage" />
        <dc:title></dc:title>
      </cc:Work>
    </rdf:RDF>
  </metadata>
  <g
     inkscape:label="Layer 1"
     inkscape:groupmode="layer"
     id="layer1">
    <rect
       style="fill:#ffffff;stroke-width:7.2;stroke-linecap:square;stroke-linejoin:round;paint-order:markers stroke fill"
       id="rect848"
       width="105.83334"
       height="105.83334"
       x="0"
       y="0" />
    <svg
       width="190"
       height="190"
       viewBox="0 0 50.270832 50.270835"
       version="1.1"
       id="SvgjsSvg1007"
       inkscape:version="1.0.1 (c497b03c, 2020-09-10)"
       sodipodi:docname="logov2_colored.svg">
      <defs
         id="SvgjsDefs1006" />
      <sodipodi:namedview
         id="SvgjsSodipodi:namedview1005"
         pagecolor="#ffffff"
         bordercolor="#666666"
         borderopacity="1.0"
         inkscape:pageopacity="0.0"
         inkscape:pageshadow="2"
         inkscape:zoom="1.8808248"
         inkscape:cx="125.70918"
         inkscape:cy="139.80558"
         inkscape:document-units="mm"
         inkscape:current-layer="layer1"
         inkscape:document-rotation="0"
         showgrid="false"
         units="px"
         inkscape:snap-bbox="true"
         inkscape:bbox-paths="true"
         inkscape:bbox-nodes="true"
         inkscape:object-paths="true"
         inkscape:snap-smooth-nodes="false"
         inkscape:snap-bbox-edge-midpoints="true"
         inkscape:snap-bbox-midpoints="true"
         showguides="true"
         inkscape:guide-bbox="true"
         fit-margin-top="0"
         fit-margin-left="0"
         fit-margin-right="0"
         fit-margin-bottom="0"
         inkscape:window-width="1680"
         inkscape:window-height="1022"
         inkscape:window-x="0"
         inkscape:window-y="0"
         inkscape:window-maximized="0">
        <sodipodi:guide
           position="10.583332,25.135373"
           orientation="0,1"
           id="SvgjsSodipodi:guide1004"
           inkscape:label=""
           inkscape:locked="false"
           inkscape:color="rgb(0,0,255)" />
        <sodipodi:guide
           position="25.135085,50.270833"
           orientation="-1,0"
           id="SvgjsSodipodi:guide1003"
           inkscape:label=""
           inkscape:locked="false"
           inkscape:color="rgb(0,0,255)" />
      </sodipodi:namedview>
      <metadata
         id="SvgjsMetadata1002">
        <rdf:rdf>
          <cc:work
             rdf:about="">
            <dc:format>image/svg+xml</dc:format>
            <dc:type
               rdf:resource="http://purl.org/dc/dcmitype/StillImage" />
            <dc:title />
          </cc:work>
        </rdf:rdf>
      </metadata>
      <g
         inkscape:label="Layer 1"
         inkscape:groupmode="layer"
         id="SvgjsG1001"
         transform="translate(-26.80474,-21.357652)">
        <path
           id="SvgjsPath1000"
           style="fill:#4f45e4;fill-opacity:1;stroke-width:0.442134;stroke-linecap:round;stroke-linejoin:round;stroke-opacity:0.54646"
           d="m 35.935382,26.958007 a 3.5370569,3.5370568 0 0 0 -3.530322,3.537057 3.5370569,3.5370568 0 0 0 3.537057,3.537057 3.5370569,3.5370568 0 0 0 3.537057,-3.537057 3.5370569,3.5370568 0 0 0 -3.537057,-3.537057 3.5370569,3.5370568 0 0 0 -0.0067,0 z m 9.726906,0 a 3.5370569,3.5370568 0 0 0 -2.585436,1.130546 c -0.01756,0.01637 -0.03545,0.03182 -0.05268,0.04905 -2.218791,2.218791 -0.629436,5.254293 -2.395631,7.044061 -1.726509,1.749554 -4.688209,0.248336 -7.04458,2.404094 a 3.5370569,3.5370568 0 0 0 -0.04369,0.03972 3.5370569,3.5370568 0 0 0 -3.35e-4,3.33e-4 c -0.0036,0.0033 -0.0071,0.0068 -0.01065,0.01005 a 3.5370569,3.5370568 0 0 0 -0.101205,0.09827 c -0.002,0.0018 -0.0039,0.0036 -0.0057,0.0055 -0.0016,0.0016 -0.0031,0.0035 -0.0048,0.0052 a 3.5370569,3.5370568 0 0 0 -1.012414,2.477148 3.5370569,3.5370568 0 0 0 3.537057,3.537057 3.5370569,3.5370568 0 0 0 2.481466,-1.016559 3.5370569,3.5370568 0 0 0 8.69e-4,-8.69e-4 c 3.34e-4,-3.33e-4 7.02e-4,-7.02e-4 10e-4,-10e-4 a 3.5370569,3.5370568 0 0 0 0.159065,-0.167353 c 2.146552,-2.355234 0.649843,-5.313009 2.397702,-7.037846 1.789771,-1.766199 4.825296,-0.176863 7.044063,-2.39563 0.01655,-0.01655 0.03141,-0.03376 0.04715,-0.0506 a 3.5370569,3.5370568 0 0 0 1.132617,-2.594073 3.5370569,3.5370568 0 0 0 -3.537057,-3.537057 3.5370569,3.5370568 0 0 0 -0.0068,0 z m 0,9.726906 a 3.5370569,3.5370568 0 0 0 -3.530322,3.537057 3.5370569,3.5370568 0 0 0 3.537057,3.537057 3.5370569,3.5370568 0 0 0 3.537057,-3.537057 3.5370569,3.5370568 0 0 0 -3.537057,-3.537057 3.5370569,3.5370568 0 0 0 -0.0068,0 z" />
      </g>
    </svg>
  </g>
  <style
     id="style945">@media (prefers-color-scheme: light) { :root { filter: none; } }
@media (prefers-color-scheme: dark) { :root { filter: contrast(0.3846153846153846) brightness(4.5); } }
</style>
</svg>
