<?xml version="1.0" encoding="UTF-8" standalone="no"?>
<svg
   xmlns:dc="http://purl.org/dc/elements/1.1/"
   xmlns:cc="http://creativecommons.org/ns#"
   xmlns:rdf="http://www.w3.org/1999/02/22-rdf-syntax-ns#"
   xmlns:svg="http://www.w3.org/2000/svg"
   xmlns="http://www.w3.org/2000/svg"
   xmlns:sodipodi="http://sodipodi.sourceforge.net/DTD/sodipodi-0.dtd"
   xmlns:inkscape="http://www.inkscape.org/namespaces/inkscape"
   width="400"
   height="400"
   viewBox="0 0 105.83333 105.83334"
   version="1.1"
   id="svg8"
   sodipodi:docname="camstruction.svg"
   inkscape:version="1.0.1 (c497b03c, 2020-09-10)"
   inkscape:export-filename="/Users/raymond/Desktop/portfolio/public/camstruction-logo.png"
   inkscape:export-xdpi="144"
   inkscape:export-ydpi="144">
  <defs
     id="defs2">
    <rect
       x="78.842201"
       y="175.55856"
       width="123.89489"
       height="65.620216"
       id="rect978" />
    <rect
       x="78.842201"
       y="175.55856"
       width="123.89489"
       height="65.620216"
       id="rect986" />
    <rect
       x="78.842201"
       y="175.55856"
       width="123.89489"
       height="65.620216"
       id="rect1038" />
    <rect
       x="78.842201"
       y="175.55856"
       width="123.89489"
       height="65.620216"
       id="rect1040" />
    <rect
       x="78.842201"
       y="175.55856"
       width="123.89489"
       height="65.620216"
       id="rect1103" />
    <rect
       x="78.842201"
       y="175.55856"
       width="123.89489"
       height="65.620216"
       id="rect1109" />
    <rect
       x="78.842201"
       y="175.55856"
       width="123.89489"
       height="65.620216"
       id="rect1196" />
  </defs>
  <sodipodi:namedview
     id="base"
     pagecolor="#ffffff"
     bordercolor="#666666"
     borderopacity="1.0"
     inkscape:pageopacity="0.0"
     inkscape:pageshadow="2"
     inkscape:zoom="0.95094722"
     inkscape:cx="159.82511"
     inkscape:cy="233.92414"
     inkscape:document-units="px"
     inkscape:current-layer="layer1"
     inkscape:document-rotation="0"
     showgrid="false"
     units="px"
     showguides="true"
     inkscape:guide-bbox="true"
     inkscape:window-width="1420"
     inkscape:window-height="852"
     inkscape:window-x="10"
     inkscape:window-y="0"
     inkscape:window-maximized="0"
     inkscape:snap-bbox="true"
     inkscape:snap-bbox-midpoints="true"
     inkscape:snap-page="true"
     inkscape:bbox-nodes="true">
    <sodipodi:guide
       position="52.916668,52.916668"
       orientation="-1,0"
       id="guide849"
       inkscape:label=""
       inkscape:locked="false"
       inkscape:color="rgb(0,0,255)" />
    <sodipodi:guide
       position="52.916666,52.916671"
       orientation="0,-1"
       id="guide851" />
    <sodipodi:guide
       position="5.2916668,100.54167"
       orientation="0,1"
       id="guide946"
       inkscape:label=""
       inkscape:locked="false"
       inkscape:color="rgb(0,0,255)" />
    <sodipodi:guide
       position="5.2916666,100.54167"
       orientation="1,0"
       id="guide948" />
    <sodipodi:guide
       position="100.54167,5.2916668"
       orientation="0,1"
       id="guide950"
       inkscape:label=""
       inkscape:locked="false"
       inkscape:color="rgb(0,0,255)" />
    <sodipodi:guide
       position="105.83334,38.223115"
       orientation="1,0"
       id="guide952" />
    <sodipodi:guide
       position="52.916665,58.208334"
       orientation="0,1"
       id="guide980"
       inkscape:label=""
       inkscape:locked="false"
       inkscape:color="rgb(0,0,255)" />
    <sodipodi:guide
       position="52.916668,47.625001"
       orientation="0,1"
       id="guide982"
       inkscape:label=""
       inkscape:locked="false"
       inkscape:color="rgb(0,0,255)" />
    <sodipodi:guide
       position="47.625001,52.916674"
       orientation="-1,0"
       id="guide984"
       inkscape:label=""
       inkscape:locked="false"
       inkscape:color="rgb(0,0,255)" />
    <sodipodi:guide
       position="58.208334,52.916674"
       orientation="-1,0"
       id="guide986"
       inkscape:label=""
       inkscape:locked="false"
       inkscape:color="rgb(0,0,255)" />
  </sodipodi:namedview>
  <metadata
     id="metadata5">
    <rdf:RDF>
      <cc:Work
         rdf:about="">
        <dc:format>image/svg+xml</dc:format>
        <dc:type
           rdf:resource="http://purl.org/dc/dcmitype/StillImage" />
        <dc:title></dc:title>
      </cc:Work>
    </rdf:RDF>
  </metadata>
  <g
     inkscape:label="Layer 1"
     inkscape:groupmode="layer"
     id="layer1">
    <rect
       style="fill:#b91c1b;fill-opacity:1;stroke-width:7.2;stroke-linecap:square;stroke-linejoin:round;paint-order:markers stroke fill"
       id="rect852"
       width="105.83334"
       height="105.83334"
       x="-8.1469744e-07"
       y="-7.8764651e-06" />
    <path
       id="path911"
       style="font-style:normal;font-variant:normal;font-weight:600;font-stretch:normal;font-size:16.9333px;line-height:1.25;font-family:Poppins;-inkscape-font-specification:'Poppins, Semi-Bold';font-variant-ligatures:normal;font-variant-caps:normal;font-variant-numeric:normal;font-variant-east-asian:normal;white-space:pre;fill:#ffffff;fill-opacity:1;stroke:none;stroke-width:1.64034"
       d="m 33.07365,21.166692 -11.898693,11.898709 6.517723,-0.620506 0.389907,0.38994 2.315858,-2.315825 0.561994,0.561143 -2.316676,2.316678 0.620488,0.619636 1.784324,-1.784323 0.562864,0.561994 -1.785192,1.78434 0.708641,0.708657 2.434519,-2.433649 0.561158,0.561994 -2.432813,2.43365 15.438564,15.439404 0.600971,-0.626429 -13.76526,-13.766113 1.07911,-1.076535 13.741524,13.741525 3.004092,-3.134662 -18.74187,-18.741906 z m 22.002888,0 c -0.308973,-4.76e-4 -0.563127,0.005 -0.709511,0.01641 h -8.19e-4 c -0.600445,0.04676 -1.423368,0.140085 -1.83519,0.202597 -0.24318,0.04167 -0.546462,0.08874 -0.670536,0.104325 -0.441562,0.07283 -1.478139,0.296771 -2.182744,0.473844 -0.689679,0.176976 -1.940319,0.535832 -1.975029,0.567096 -0.0083,0.0083 0.0643,0.04265 0.163542,0.07381 0.143865,0.04167 0.257581,0.03101 0.560305,-0.06265 0.33248,-0.09366 0.516887,-0.10941 1.424927,-0.10941 1.131354,0 1.498576,0.04659 2.545569,0.338222 1.071811,0.296752 1.979407,0.66112 3.03634,1.213011 3.959687,2.087883 6.470285,5.274265 6.336302,8.049433 -0.03477,0.661268 -0.13401,1.088313 -0.382313,1.640235 -0.297688,0.666452 -0.322129,0.770105 -0.322129,1.483421 0.0066,0.749748 0.10941,1.19815 0.406885,1.765689 l 0.173777,0.333135 -6.822873,7.159389 -7.690872,8.027403 -0.138945,-0.104325 c -0.451551,-0.333218 -1.110621,-0.520134 -1.661429,-0.462837 -0.392023,0.03642 -0.893818,0.191148 -1.146889,0.352639 -0.09924,0.06774 -0.873708,0.812819 -1.71228,1.656327 -14.970521,15.0734 -20.561996,20.729454 -20.735642,20.958543 -0.114165,0.150911 -0.288994,0.452798 -0.388218,0.666272 -0.163869,0.369664 -0.172908,0.416841 -0.172908,0.937516 0,0.494627 0.01305,0.583205 0.14829,0.911238 0.213441,0.520643 0.471203,0.895065 1.146036,1.665662 1.002327,1.135045 4.337786,4.576452 4.655403,4.80034 1.543145,1.088202 3.110681,1.125177 4.187445,0.09416 0.377147,-0.359292 20.652615,-22.880347 20.826309,-23.130268 0.456489,-0.650853 0.540425,-1.837061 0.18818,-2.633705 -0.08448,-0.187458 -0.193608,-0.3852 -0.243261,-0.44248 -0.02755,-0.032 0.1017,-0.203042 0.367861,-0.50775 l 21.938492,21.93931 c 2.747904,2.747906 10.266904,5.523378 10.266904,5.523378 0,0 -2.755975,-7.534279 -5.505571,-10.283874 L 57.077862,52.308723 c 0.946833,-0.992451 1.23627,-1.299146 2.643054,-2.775249 l 6.861831,-7.200938 0.303462,0.25007 c 1.131372,0.958053 2.237596,1.21821 3.721296,0.884959 0.987448,-0.224004 1.464112,-0.177418 2.218323,0.202598 0.47637,0.239571 0.976558,0.65118 1.487653,1.229119 0.33248,0.374883 1.702979,2.140523 1.737705,2.244618 0.0147,0.03642 -0.173302,0.275658 -0.421287,0.530631 -0.694666,0.71855 -0.93363,1.321848 -0.879039,2.222588 0.128925,2.145148 2.396577,3.598632 4.167975,2.671843 0.203499,-0.10416 0.798827,-0.70308 2.778677,-2.77018 2.262678,-2.369054 2.535793,-2.676468 2.689657,-2.98887 0.53091,-1.114247 0.268293,-2.456943 -0.664597,-3.425412 -0.903071,-0.931989 -2.21373,-1.171577 -3.250784,-0.583205 l -0.24244,0.13992 -0.193248,-0.233944 c -0.3821,-0.452979 -1.112066,-1.509747 -1.345256,-1.947093 -0.133845,-0.244673 -0.377932,-0.754916 -0.541671,-1.135031 -0.511128,-1.202709 -1.016317,-2.239056 -1.318992,-2.733715 -0.679788,-1.082966 -1.494018,-2.13465 -2.565877,-3.295728 -2.823378,-3.061569 -7.526874,-8.060621 -7.884138,-8.383422 -2.495918,-2.249292 -5.151045,-3.472326 -8.535153,-3.93572 -0.427964,-0.05856 -1.841571,-0.10794 -2.768475,-0.10941 z M 45.31056,53.772853 c -0.02739,0.05773 -0.779438,1.643418 -1.127369,2.376845 -0.173695,0.249937 -18.680983,19.059916 -19.05808,19.419198 -1.076781,1.031032 -0.617946,2.488666 2.000505,6.39988 -0.317618,-0.22389 -1.884845,-1.810602 -2.887188,-2.945647 -0.674834,-0.770597 -0.932579,-1.145019 -1.146036,-1.665662 -0.134835,-0.328033 -0.149265,-0.416611 -0.149265,-0.911238 0,-0.520675 0.0099,-0.56785 0.173778,-0.937516 0.09924,-0.213474 0.273246,-0.515345 0.387397,-0.666272 0.173646,-0.229089 3.99771,-4.029613 18.96824,-19.103008 0.838572,-0.843509 1.612974,-1.58868 1.71228,-1.656344 0.182059,-0.116295 0.884155,-0.24541 1.125679,-0.310236 z m 8.773362,1.679226 22.464859,22.464842 c 2.400647,2.761158 6.881367,5.52171 6.881367,5.52171 -4.9e-5,0 -5.373162,-1.857843 -7.958755,-4.44347 L 53.037882,56.56252 c 0.214489,-0.230811 0.72219,-0.768168 1.04604,-1.110441 z"
       inkscape:export-filename="/Users/raymond/Desktop/cam.png"
       inkscape:export-xdpi="96"
       inkscape:export-ydpi="96"
       sodipodi:nodetypes="ccccccccccccccccccccccccccccccccscccccccccccccccsccccccccccsccccccccccccccccccccccsccccccccsccccsccccccc" />
  </g>
</svg>
